PathFileType	4	(X/Y/Z)	/Users/itak/Documents/Research/Walk-IL/dataset/trc/00563_00009.trc
DataRate	CameraRate	NumFrames	NumMarkers	Units	OrigDataRate	OrigDataStartFrame	OrigNumFrames
100.000000	100.000000	4	53	mm	100.000000	104	419
Frame#	Time	RPSI			LPSI			L3			STRN			T10			C7			CLAV			RBAK			LBAK			LSHO			LUPA			LAEL			LAOL			LWTS			LWPS			LFRA			LHPS			LHTS			RSHO			RUPA			RAEL			RAOL			RWTS			RWPS			RFRA			RIFD			RHTS			RHPS			RBHD			LFHD			RFHD			LBHD			LHIP			RHIP			RASI			LASI			LKNE			LTHI			LANK			LTIP			LTOE			LMT1			LMT5			LHEE			RKNE			RTHI			RANK			RTIP			RTOE			RMT1			RMT5			RHEE			LIFD			
		X1	Y1	Z1	X2	Y2	Z2	X3	Y3	Z3	X4	Y4	Z4	X5	Y5	Z5	X6	Y6	Z6	X7	Y7	Z7	X8	Y8	Z8	X9	Y9	Z9	X10	Y10	Z10	X11	Y11	Z11	X12	Y12	Z12	X13	Y13	Z13	X14	Y14	Z14	X15	Y15	Z15	X16	Y16	Z16	X17	Y17	Z17	X18	Y18	Z18	X19	Y19	Z19	X20	Y20	Z20	X21	Y21	Z21	X22	Y22	Z22	X23	Y23	Z23	X24	Y24	Z24	X25	Y25	Z25	X26	Y26	Z26	X27	Y27	Z27	X28	Y28	Z28	X29	Y29	Z29	X30	Y30	Z30	X31	Y31	Z31	X32	Y32	Z32	X33	Y33	Z33	X34	Y34	Z34	X35	Y35	Z35	X36	Y36	Z36	X37	Y37	Z37	X38	Y38	Z38	X39	Y39	Z39	X40	Y40	Z40	X41	Y41	Z41	X42	Y42	Z42	X43	Y43	Z43	X44	Y44	Z44	X45	Y45	Z45	X46	Y46	Z46	X47	Y47	Z47	X48	Y48	Z48	X49	Y49	Z49	X50	Y50	Z50	X51	Y51	Z51	X52	Y52	Z52	X53	Y53	Z53	

105	1.04	-1354.408569335938	1008.361938476562	-502.4282531738281	-1290.103637695312	1012.707885742188	-620.0537719726562	-1305.7978515625	1110.233520507812	-555.240966796875	-1070.824584960938	1267.841186523438	-455.9075622558594	-1302.588134765625	1235.636474609375	-551.833740234375	-1227.464965820312	1500.075073242188	-507.1177368164062	-1073.781127929688	1379.798583984375	-456.998291015625	-1340.096801757812	1387.711059570312	-457.6835327148438	-1231.828125	1452.24853515625	-607.328125	-1108.988403320312	1466.318725585938	-645.4844360351562	-1093.65185546875	1341.582885742188	-726.00927734375	-1063.816162109375	1119.150146484375	-738.554931640625	-1163.87451171875	1111.39013671875	-726.0298461914062	-1002.081787109375	874.3677368164062	-663.7409057617188	-1017.208312988281	851.906982421875	-746.970703125	-1041.177978515625	1032.60107421875	-737.2564697265625	-1009.292602539062	792.4260864257812	-737.3229370117188	-976.2913818359375	799.2152709960938	-677.7860717773438	-1232.170532226562	1458.307006835938	-343.5946044921875	-1279.951293945312	1397.246215820312	-290.3992614746094	-1322.617065429688	1114.03173828125	-244.9605712890625	-1372.53515625	1099.189086914062	-281.4773559570312	-1179.136352539062	896.7852172851562	-263.5122985839844	-1235.607299804688	875.1635131835938	-205.814453125	-1314.272216796875	1057.823364257812	-236.1101531982422	-1173.393432617188	726.2823486328125	-265.4378967285156	-1152.674072265625	805.1358642578125	-243.7130126953125	-1217.178344726562	801.8461303710938	-202.9244842529297	-1136.136840820312	1663.294799804688	-404.1453552246094	-941.517333984375	1650.16845703125	-479.6118774414062	-1006.353637695312	1653.999633789062	-349.7006530761719	-1056.551147460938	1655.555908203125	-548.9140014648438	-1122.89111328125	924.6134643554688	-682.5491333007812	-1301.950073242188	929.4202270507812	-340.0272521972656	-1197.955444335938	956.5595703125	-356.1662292480469	-1074.565795898438	945.0492553710938	-601.452880859375	-1137.426147460938	479.1866149902344	-603.2354125976562	-1118.638427734375	644.7606201171875	-640.5857543945312	-1293.924072265625	27.58599090576172	-651.6522216796875	-1233.5166015625	241.1326904296875	-642.8368530273438	-1125.736206054688	48.0972785949707	-516.3173828125	-1205.498046875	43.52367782592773	-511.2668151855469	-1176.699829101562	37.96782302856445	-613.3280029296875	-1380.500854492188	23.2010383605957	-629.0635375976562	-1207.597534179688	490.454345703125	-336.4669799804688	-1252.330688476562	778.8858642578125	-318.8285522460938	-1401.52294921875	52.34904861450195	-421.0234680175781	-1234.19873046875	344.5441589355469	-355.5822448730469	-1186.764282226562	49.05437850952148	-370.17724609375	-1225.7216796875	46.30073165893555	-433.745849609375	-1289.241577148438	47.74307632446289	-350.5559692382812	-1427.905639648438	42.99492263793945	-493.8425903320312	-1008.960510253906	714.4495239257812	-654.997314453125	
106	1.05	-1352.190795898438	1007.047058105469	-502.3992004394531	-1287.23291015625	1011.851928710938	-619.6656494140625	-1303.016235351562	1109.848266601562	-554.708251953125	-1067.969482421875	1266.258422851562	-453.6381530761719	-1299.4580078125	1235.225463867188	-550.9616088867188	-1222.937744140625	1499.232421875	-505.5166015625	-1070.221313476562	1378.154663085938	-454.6021728515625	-1336.5263671875	1387.565063476562	-456.6560974121094	-1227.102416992188	1451.457153320312	-605.8021850585938	-1104.02001953125	1464.714233398438	-643.2716064453125	-1088.379272460938	1339.93896484375	-723.5663452148438	-1057.487060546875	1117.673583984375	-735.7158203125	-1157.51904296875	1109.320068359375	-723.62548828125	-993.6093139648438	874.0697631835938	-659.2998657226562	-1008.917907714844	850.7542724609375	-742.3538818359375	-1034.239501953125	1031.294189453125	-733.8934326171875	-1000.208129882812	791.5032348632812	-732.3278198242188	-966.9195556640625	799.202880859375	-673.1233520507812	-1228.65576171875	1457.505859375	-341.9959106445312	-1277.012084960938	1396.7177734375	-289.0221557617188	-1321.334350585938	1113.818481445312	-243.6665344238281	-1371.132202148438	1099.029541015625	-280.3653564453125	-1177.815063476562	896.6685180664062	-261.4988098144531	-1234.557495117188	875.0242309570312	-204.1298065185547	-1313.103515625	1057.56982421875	-234.7609252929688	-1171.785766601562	726.1770629882812	-263.1786193847656	-1151.27490234375	805.0917358398438	-241.4688873291016	-1216.036987304688	801.7498168945312	-200.9832458496094	-1130.675659179688	1661.64501953125	-401.8147583007812	-936.2744750976562	1647.652221679688	-477.7509765625	-1000.819580078125	1651.766235351562	-347.6656494140625	-1051.481323242188	1653.550903320312	-546.7835083007812	-1119.678588867188	923.9661254882812	-681.4882202148438	-1300.0654296875	928.3282470703125	-339.6209106445312	-1196.361328125	955.579345703125	-355.5755615234375	-1071.794311523438	944.2056274414062	-600.1153564453125	-1135.31884765625	478.3931274414062	-601.8986206054688	-1115.768676757812	643.9064331054688	-639.216064453125	-1294.004150390625	27.59201431274414	-651.680908203125	-1232.560668945312	240.8280639648438	-642.39404296875	-1126.352294921875	48.92203521728516	-515.8980102539062	-1206.066528320312	43.96973037719727	-511.0534057617188	-1177.03076171875	38.51035308837891	-612.9844970703125	-1380.719970703125	22.93370819091797	-629.3023681640625	-1198.064819335938	490.9278564453125	-332.8792724609375	-1247.692016601562	778.5900268554688	-317.9933776855469	-1398.931640625	56.5860710144043	-421.10888671875	-1226.393188476562	345.3087463378906	-352.8607482910156	-1184.6103515625	50.56357955932617	-369.166259765625	-1223.202758789062	48.33174514770508	-432.9745178222656	-1287.182250976562	50.30864715576172	-350.1542053222656	-1425.042846679688	47.98162460327148	-494.1616821289062	-999.385986328125	714.5634765625	-650.1438598632812	
107	1.06	-1349.824462890625	1005.760498046875	-502.2630920410156	-1284.250732421875	1011.033752441406	-619.1762084960938	-1300.135498046875	1109.482421875	-554.1077270507812	-1064.992309570312	1264.658325195312	-451.2019348144531	-1296.141479492188	1234.828735351562	-550.024169921875	-1218.228515625	1498.381591796875	-503.8031005859375	-1066.522216796875	1376.490112304688	-452.0316772460938	-1332.803344726562	1387.423461914062	-455.5864868164062	-1222.139404296875	1450.657592773438	-604.171875	-1098.816772460938	1463.100463867188	-640.876708984375	-1082.838500976562	1338.32275390625	-720.9659423828125	-1050.9345703125	1116.220825195312	-732.7360229492188	-1150.929931640625	1107.255126953125	-721.1718139648438	-984.9008178710938	873.9030151367188	-654.53466796875	-1000.335632324219	849.65673828125	-737.3961791992188	-1027.052490234375	1030.02099609375	-730.3440551757812	-990.81396484375	790.650146484375	-726.92431640625	-957.1917724609375	799.351806640625	-668.0443115234375	-1225.050170898438	1456.700317382812	-340.3026428222656	-1274.018798828125	1396.19384765625	-287.5839538574219	-1320.077758789062	1113.620239257812	-242.3506011962891	-1369.719482421875	1098.88818359375	-279.3016357421875	-1176.617797851562	896.4996948242188	-259.3102111816406	-1233.691284179688	874.8540649414062	-202.3378448486328	-1312.002563476562	1057.328857421875	-233.3668060302734	-1170.374877929688	726.01513671875	-260.7008972167969	-1150.072998046875	804.9944458007812	-238.9943389892578	-1215.107543945312	801.6209106445312	-198.9013519287109	-1125.061157226562	1659.96484375	-399.3201904296875	-930.8805541992188	1645.1171875	-475.6956176757812	-995.1663818359375	1649.512084960938	-345.4460144042969	-1046.235473632812	1651.521362304688	-544.4786376953125	-1116.343139648438	923.3259887695312	-680.3380126953125	-1297.99462890625	927.2734985351562	-339.1016235351562	-1194.589599609375	954.62890625	-354.9019165039062	-1068.773803710938	943.4439086914062	-598.7233276367188	-1133.299072265625	477.6386108398438	-600.5623168945312	-1112.933471679688	643.0811157226562	-637.7973022460938	-1294.087768554688	27.61680030822754	-651.6990966796875	-1231.6943359375	240.5694122314453	-641.9716186523438	-1127.010620117188	49.79740142822266	-515.4365234375	-1206.679443359375	44.45473480224609	-510.8214416503906	-1177.371704101562	39.0642204284668	-612.6177978515625	-1380.94873046875	22.67245674133301	-629.5490112304688	-1188.161376953125	491.6136779785156	-329.1894226074219	-1242.8466796875	778.4010009765625	-317.0000305175781	-1395.571166992188	61.02504348754883	-420.8976135253906	-1218.084106445312	346.3209228515625	-350.0131530761719	-1181.655517578125	52.16184616088867	-367.9023742675781	-1219.923095703125	50.4930419921875	-431.9307556152344	-1284.325927734375	53.08071899414062	-349.4648132324219	-1421.42578125	53.11962890625	-494.1735534667969	-989.5387573242188	714.8173217773438	-644.8798217773438	
108	1.07	-1347.288818359375	1004.528625488281	-502.0009765625	-1281.138427734375	1010.272644042969	-618.5714111328125	-1297.143676757812	1109.141479492188	-553.4270629882812	-1061.876708984375	1263.050170898438	-448.60595703125	-1292.616333007812	1234.447998046875	-549.0134887695312	-1213.33544921875	1497.52587890625	-501.975341796875	-1062.67626953125	1374.8154296875	-449.2916564941406	-1328.91650390625	1387.285034179688	-454.4720458984375	-1216.938598632812	1449.85546875	-602.4356079101562	-1093.37451171875	1461.494506835938	-638.2985229492188	-1077.01806640625	1336.750610351562	-718.2052612304688	-1044.15673828125	1114.806884765625	-729.6033325195312	-1144.109985351562	1105.214721679688	-718.6614379882812	-976.000244140625	873.86328125	-649.45361328125	-991.47900390625	848.62744140625	-732.1016845703125	-1019.621826171875	1028.794311523438	-726.602783203125	-981.1453857421875	789.87890625	-721.1205444335938	-947.196533203125	799.6445922851562	-662.54638671875	-1221.34716796875	1455.8974609375	-338.5170593261719	-1270.961669921875	1395.681030273438	-286.0880737304688	-1318.835205078125	1113.445190429688	-241.0187835693359	-1368.290405273438	1098.777587890625	-278.2842102050781	-1175.552734375	896.2698364257812	-256.9568481445312	-1233.014282226562	874.6519775390625	-200.4425354003906	-1310.955688476562	1057.110229492188	-231.9384460449219	-1169.196044921875	725.7894897460938	-258.0198974609375	-1149.090209960938	804.830322265625	-236.3014831542969	-1214.40673828125	801.4574584960938	-196.689208984375	-1119.293823242188	1658.260009765625	-396.6613159179688	-925.3330078125	1642.5732421875	-473.4415283203125	-989.3929443359375	1647.240966796875	-343.0380554199219	-1040.81201171875	1649.478271484375	-541.9955444335938	-1112.893310546875	922.69970703125	-679.1055908203125	-1295.713500976562	926.2744140625	-338.4591979980469	-1192.610229492188	953.7150268554688	-354.1428527832031	-1065.52685546875	942.742431640625	-597.2789306640625	-1131.390380859375	476.9236145019531	-599.2410278320312	-1110.151123046875	642.2942504882812	-636.3526000976562	-1294.183837890625	27.66462707519531	-651.70654296875	-1230.936401367188	240.3623199462891	-641.58251953125	-1127.704833984375	50.72490692138672	-514.9472045898438	-1207.333129882812	44.97967147827148	-510.5795288085938	-1177.723999023438	39.6240119934082	-612.2399291992188	-1381.188598632812	22.41593742370605	-629.8026733398438	-1177.953491210938	492.5156860351562	-325.4170227050781	-1237.829711914062	778.3263549804688	-315.8342895507812	-1391.321166992188	65.51865386962891	-420.3062133789062	-1209.283569335938	347.5668334960938	-347.0256958007812	-1177.775024414062	53.83195495605469	-366.3346252441406	-1215.7646484375	52.73089218139648	-430.5554504394531	-1280.54345703125	55.97678375244141	-348.4205322265625	-1416.940673828125	58.24779891967773	-493.7878723144531	-979.4894409179688	715.1978149414062	-639.2010498046875	
